<?xml version="1.0" encoding="UTF-8" standalone="no"?><!DOCTYPE svg PUBLIC "-//W3C//DTD SVG 1.1//EN" "http://www.w3.org/Graphics/SVG/1.1/DTD/svg11.dtd"><svg width="100%" height="100%" viewBox="0 0 4200 988" version="1.1" xmlns="http://www.w3.org/2000/svg" xmlns:xlink="http://www.w3.org/1999/xlink" xml:space="preserve" xmlns:serif="http://www.serif.com/" style="fill-rule:evenodd;clip-rule:evenodd;stroke-linejoin:round;stroke-miterlimit:2;"><g><g><path d="M88.844,776.367l667.553,-693.61c-0.596,-0.38 -1.165,-0.765 -1.762,-1.144l-686.953,661.927c6.635,11.242 13.687,22.176 21.162,32.827Z" style="fill:#1d1d1b;fill-rule:nonzero;"/><path d="M206.005,894.384l672.654,-698.9c-0.363,-0.477 -0.726,-0.96 -1.106,-1.415l-702.175,676.589c9.882,8.299 20.111,16.214 30.627,23.726Z" style="fill:#1d1d1b;fill-rule:nonzero;"/><path d="M279.649,937.749l645.085,-670.285c-0.401,-0.764 -0.802,-1.529 -1.203,-2.277l-678.85,654.132c11.378,6.597 23.037,12.75 34.968,18.43Z" style="fill:#1d1d1b;fill-rule:nonzero;"/><path d="M241.488,917.465l661.531,-687.36c-0.385,-0.591 -0.764,-1.165 -1.149,-1.756l-693.187,667.949c10.629,7.475 21.563,14.549 32.805,21.184l0,-0.017Z" style="fill:#1d1d1b;fill-rule:nonzero;"/><path d="M65.828,740.347l653.747,-679.251c-0.764,-0.401 -1.534,-0.802 -2.277,-1.203l-669.9,645.486c5.675,11.93 11.833,23.612 18.43,34.99l-0,-0.022Z" style="fill:#1d1d1b;fill-rule:nonzero;"/><path d="M4.857,563.96l536.206,-557.141c-2.504,-0.271 -5.03,-0.498 -7.556,-0.726l-532.894,513.473c0.748,14.988 2.162,29.786 4.228,44.394l0.016,0Z" style="fill:#1d1d1b;fill-rule:nonzero;"/><path d="M2.315,446.702l421.604,-438.067c-5.123,0.689 -10.207,1.453 -15.276,2.315l-398.506,383.996c-3.502,16.939 -6.12,34.226 -7.822,51.756Z" style="fill:#1d1d1b;fill-rule:nonzero;"/><path d="M45.56,701.481l634.401,-659.178c-1.013,-0.423 -2.011,-0.84 -3.025,-1.263l-646.825,623.272c4.646,12.636 9.812,25.027 15.449,37.148l0,0.021Z" style="fill:#1d1d1b;fill-rule:nonzero;"/><path d="M490.207,985.18c11.183,-0 22.29,-0.38 33.305,-1.128l456.67,-474.504c0.092,-3.501 0.173,-7.019 0.211,-10.537l-504.333,485.963c4.699,0.13 9.404,0.206 14.147,0.206Z" style="fill:#1d1d1b;fill-rule:nonzero;"/><path d="M15.086,373.518l336.224,-349.358c-8.261,2.428 -16.425,5.084 -24.491,7.936l-292.425,281.768c-7.665,19.314 -14.126,39.235 -19.308,59.654Z" style="fill:#1d1d1b;fill-rule:nonzero;"/><path d="M14.571,613.803l576.66,-599.167c-1.837,-0.379 -3.675,-0.764 -5.507,-1.128l-579.664,558.535c2.239,14.131 5.085,28.067 8.489,41.76l0.022,-0Z" style="fill:#1d1d1b;fill-rule:nonzero;"/><path d="M28.334,659.439l608.989,-632.758c-1.355,-0.418 -2.716,-0.841 -4.071,-1.258l-617.093,594.608c3.512,13.367 7.589,26.502 12.175,39.386l-0,0.022Z" style="fill:#1d1d1b;fill-rule:nonzero;"/><path d="M589.871,975.032l383.773,-398.761c0.841,-5.069 1.605,-10.153 2.31,-15.276l-437.801,421.854c17.535,-1.702 34.778,-4.32 51.718,-7.817Z" style="fill:#1d1d1b;fill-rule:nonzero;"/><path d="M142.529,840.471l679.902,-706.435c-0.401,-0.385 -0.802,-0.748 -1.225,-1.128l-704.793,679.116c8.337,9.827 17.053,19.308 26.116,28.431l0,0.016Z" style="fill:#1d1d1b;fill-rule:nonzero;"/><path d="M114.445,809.709l676.21,-702.592c-0.477,-0.363 -0.937,-0.748 -1.414,-1.111l-698.5,673.039c7.513,10.532 15.405,20.761 23.704,30.648l0,0.016Z" style="fill:#1d1d1b;fill-rule:nonzero;"/><path d="M670.914,950.77l281.601,-292.594c2.851,-8.071 5.507,-16.251 7.936,-24.512l-349.147,336.436c20.419,-5.183 40.324,-11.666 59.61,-19.33Z" style="fill:#1d1d1b;fill-rule:nonzero;"/><path d="M144.633,842.574c9.123,9.085 18.603,17.802 28.409,26.138l678.72,-705.215c-0.363,-0.401 -0.748,-0.803 -1.128,-1.225l-706.018,680.302l0.017,0Z" style="fill:#1d1d1b;fill-rule:nonzero;"/><path d="M0,494.69c0,4.744 0.076,9.465 0.211,14.148l485.676,-504.62c-3.518,0.037 -7.036,0.097 -10.538,0.211l-474.222,456.936c-0.742,11.014 -1.127,22.121 -1.127,33.325Z" style="fill:#1d1d1b;fill-rule:nonzero;"/><path d="M117.54,176.018c-25.921,30.307 -48.194,63.817 -66.185,99.859l203.728,-211.68c-24.339,13.323 -47.414,28.675 -69.021,45.804l-68.522,66.039l0,-0.022Z" style="fill:#1d1d1b;fill-rule:nonzero;"/><path d="M320.678,955.052l622.893,-647.21c-0.423,-1.014 -0.846,-2.027 -1.263,-3.019l-658.778,634.78c12.121,5.638 24.512,10.803 37.132,15.465l0.016,-0.016Z" style="fill:#1d1d1b;fill-rule:nonzero;"/><path d="M808.684,867.563l66.002,-68.56c17.107,-21.622 32.442,-44.72 45.766,-69.058l-211.566,203.864c36.019,-17.991 69.497,-40.303 99.798,-66.224l0,-0.022Z" style="fill:#1d1d1b;fill-rule:nonzero;"/><path d="M465.332,984.573l513.185,-533.204c-0.227,-2.526 -0.46,-5.047 -0.726,-7.551l-556.816,536.527c14.587,2.065 29.385,3.48 44.357,4.244l0,-0.016Z" style="fill:#1d1d1b;fill-rule:nonzero;"/><path d="M364.921,969.01l594.267,-617.462c-0.418,-1.355 -0.824,-2.715 -1.263,-4.07l-632.369,609.33c12.885,4.591 26.019,8.662 39.365,12.18l-0,0.022Z" style="fill:#1d1d1b;fill-rule:nonzero;"/><path d="M371.155,970.615c13.687,3.42 27.623,6.249 41.733,8.504l558.192,-579.983c-0.363,-1.838 -0.748,-3.691 -1.127,-5.524l-598.82,577.003l0.022,-0Z" style="fill:#1d1d1b;fill-rule:nonzero;"/><path d="M1060.9,512.909c-0,-141.093 109.529,-226.191 232.387,-226.191c73.341,-0 122.229,22.273 153.181,43.018l-0,99.647c-37.435,-29.407 -80.453,-56 -146.048,-56c-81.39,-0 -147.294,54.146 -147.294,139.548c0,85.402 64.684,138.935 148.536,138.935c61.274,0 101.81,-22.907 144.827,-56l0,99.647c-30.322,20.42 -80.761,43.018 -152.243,43.018c-124.083,0 -233.324,-85.098 -233.324,-225.584l-0.022,-0.038Z" style="fill:#1d1d1b;fill-rule:nonzero;"/><path d="M1486.37,630.184c-0,-69.937 54.466,-108.309 108.922,-108.309c32.805,-0 55.691,13.307 71.178,29.407l-0.309,-13.308c-0.613,-34.031 -27.223,-51.062 -66.533,-51.062c-35.581,-0 -65.595,14.549 -86.014,28.464l-0,-76.128c18.565,-13.004 57.87,-28.778 102.417,-28.778c88.199,0 139.244,49.193 139.244,124.712l0,194.02l-86.014,0l0,-22.273c-15.774,17.015 -40.226,31.564 -73.953,31.564c-54.472,0 -108.922,-38.372 -108.922,-108.309l-0.016,0Zm179.791,0c-0,-26.61 -20.42,-42.693 -46.417,-42.693c-28.469,0 -47.338,17.65 -47.338,42.693c-0,25.049 18.869,42.693 47.338,42.693c25.997,-0 46.417,-16.403 46.417,-42.693Z" style="fill:#1d1d1b;fill-rule:nonzero;"/><path d="M1814.98,419.767l86.015,-0l-0,63.741c10.841,-39.31 40.226,-70.549 87.889,-70.549c7.112,-0 15.465,0.612 21.049,1.853l-0,89.744c-5.562,-1.55 -11.758,-2.466 -19.498,-2.466c-48.276,-0 -86.345,42.08 -86.345,121.92l-0,105.209l-89.11,-0l0,-309.452Z" style="fill:#1d1d1b;fill-rule:nonzero;"/><path d="M2137.42,450.084c19.806,-24.127 53.842,-39.614 94.069,-39.614c86.014,0 149.446,73.954 149.446,162.456c-0,88.497 -62.819,165.546 -150.08,165.546c-39.305,-0 -74.583,-14.853 -96.547,-42.081l0,32.811l-86.02,0l0,-433.215l89.115,0l0,154.097l0.017,0Zm152.552,124.083c-0,-42.383 -31.261,-79.211 -77.358,-79.211c-46.091,0 -77.661,37.131 -77.661,79.211c0,42.081 31.261,79.841 77.661,79.841c46.401,-0 77.358,-36.823 77.358,-79.841Z" style="fill:#1d1d1b;fill-rule:nonzero;"/><path d="M2409.42,574.167c-0,-86.014 66.532,-163.697 168.646,-163.697c102.113,0 168.646,77.662 168.646,163.697c-0,86.036 -66.533,164.305 -168.646,164.305c-102.114,-0 -168.646,-77.656 -168.646,-164.305Zm246.307,0.304c-0,-42.08 -31.261,-79.531 -77.661,-79.531c-46.401,-0 -77.661,37.435 -77.661,79.531c-0,42.102 31.26,79.537 77.661,79.537c46.4,-0 77.661,-37.435 77.661,-79.537Z" style="fill:#1d1d1b;fill-rule:nonzero;"/><path d="M2780.12,512.909c0,-141.093 109.529,-226.191 232.387,-226.191c73.341,-0 122.224,22.273 153.181,43.018l0,99.647c-37.434,-29.407 -80.452,-56 -146.047,-56c-81.391,-0 -147.294,54.146 -147.294,139.548c-0,85.402 64.678,138.935 148.535,138.935c61.275,0 101.805,-22.907 144.823,-56l-0,99.647c-30.323,20.42 -80.757,43.018 -152.244,43.018c-124.077,0 -233.303,-85.098 -233.303,-225.584l-0.038,-0.038Z" style="fill:#1d1d1b;fill-rule:nonzero;"/><path d="M3205.59,630.184c0,-69.937 54.467,-108.309 108.917,-108.309c32.811,-0 55.691,13.307 71.178,29.407l-0.304,-13.308c-0.612,-34.031 -27.228,-51.062 -66.532,-51.062c-35.581,-0 -65.595,14.549 -86.015,28.464l0,-76.128c18.561,-13.004 57.871,-28.778 102.417,-28.778c88.194,0 139.245,49.193 139.245,124.712l0,194.02l-86.02,0l0,-22.273c-15.768,17.015 -40.226,31.564 -73.948,31.564c-54.471,0 -108.921,-38.372 -108.921,-108.309l-0.017,0Zm179.77,0c-0,-26.61 -20.415,-42.693 -46.417,-42.693c-28.469,0 -47.338,17.65 -47.338,42.693c-0,25.049 18.869,42.693 47.338,42.693c26.002,-0 46.417,-16.403 46.417,-42.693Z" style="fill:#1d1d1b;fill-rule:nonzero;"/><path d="M3534.22,852.976l0,-433.209l86.014,-0l0,32.805c21.97,-27.227 57.242,-42.08 96.552,-42.08c87.256,0 150.081,75.807 150.081,165.551c-0,89.744 -63.438,162.45 -149.452,162.45c-40.226,0 -74.257,-15.465 -94.064,-39.614l0,154.097l-89.131,0Zm86.649,-278.18c-0,42.08 31.255,79.212 77.655,79.212c46.406,-0 77.358,-36.823 77.358,-79.212c-0,-42.384 -31.261,-79.84 -77.358,-79.84c-46.091,0 -77.655,36.828 -77.655,79.84Z" style="fill:#1d1d1b;fill-rule:nonzero;"/></g></g></svg>