<?xml version="1.0" encoding="UTF-8" standalone="no"?><!DOCTYPE svg PUBLIC "-//W3C//DTD SVG 1.1//EN" "http://www.w3.org/Graphics/SVG/1.1/DTD/svg11.dtd"><svg width="100%" height="100%" viewBox="0 0 9179 3361" version="1.1" xmlns="http://www.w3.org/2000/svg" xmlns:xlink="http://www.w3.org/1999/xlink" xml:space="preserve" xmlns:serif="http://www.serif.com/" style="fill-rule:evenodd;clip-rule:evenodd;stroke-linejoin:round;stroke-miterlimit:2;"><g><path d="M519.5,2291.42l1454.83,-1511.62c-1.291,-0.834 -2.541,-1.667 -3.833,-2.5l-1497.12,1442.58c14.458,24.5 29.833,48.333 46.125,71.542Z" style="fill:#f2f2f2;fill-rule:nonzero;"/><path d="M774.833,2548.62l1465.96,-1523.17c-0.792,-1.041 -1.584,-2.083 -2.417,-3.083l-1530.29,1474.54c21.542,18.083 43.834,35.333 66.75,51.708Z" style="fill:#f2f2f2;fill-rule:nonzero;"/><path d="M935.333,2643.12l1405.88,-1460.79c-0.875,-1.666 -1.75,-3.333 -2.625,-4.958l-1479.46,1425.58c24.792,14.375 50.208,27.792 76.208,40.167Z" style="fill:#f2f2f2;fill-rule:nonzero;"/><path d="M852.167,2598.92l1441.71,-1498c-0.833,-1.292 -1.667,-2.542 -2.5,-3.834l-1510.71,1455.71c23.166,16.291 47,31.708 71.5,46.166l-0,-0.041Z" style="fill:#f2f2f2;fill-rule:nonzero;"/><path d="M469.333,2212.92l1424.75,-1480.33c-1.666,-0.875 -3.333,-1.75 -4.958,-2.625l-1459.96,1406.75c12.375,26 25.791,51.459 40.166,76.25l0,-0.041Z" style="fill:#f2f2f2;fill-rule:nonzero;"/><path d="M336.458,1828.5l1168.58,-1214.21c-5.459,-0.584 -10.959,-1.084 -16.459,-1.584l-1161.38,1119.04c1.625,32.667 4.709,64.917 9.209,96.75l0.041,0Z" style="fill:#f2f2f2;fill-rule:nonzero;"/><path d="M330.917,1572.96l918.833,-954.708c-11.167,1.5 -22.25,3.167 -33.292,5.042l-868.5,836.875c-7.625,36.916 -13.333,74.583 -17.041,112.791Z" style="fill:#f2f2f2;fill-rule:nonzero;"/><path d="M425.167,2128.21l1382.58,-1436.58c-2.208,-0.917 -4.375,-1.833 -6.583,-2.75l-1409.67,1358.33c10.125,27.542 21.375,54.542 33.667,80.959l-0,0.041Z" style="fill:#f2f2f2;fill-rule:nonzero;"/><path d="M1394.21,2746.5c24.375,0 48.584,-0.833 72.584,-2.458l995.25,-1034.12c0.208,-7.625 0.375,-15.292 0.458,-22.959l-1099.12,1059.08c10.25,0.291 20.5,0.458 30.833,0.458Z" style="fill:#f2f2f2;fill-rule:nonzero;"/><path d="M358.75,1413.46l732.75,-761.375c-18,5.292 -35.792,11.084 -53.375,17.292l-637.292,614.083c-16.708,42.084 -30.791,85.5 -42.083,130Z" style="fill:#f2f2f2;fill-rule:nonzero;"/><path d="M357.625,1937.12l1256.75,-1305.79c-4,-0.833 -8,-1.666 -12,-2.458l-1263.29,1217.25c4.875,30.792 11.084,61.167 18.5,91l0.042,0Z" style="fill:#f2f2f2;fill-rule:nonzero;"/><path d="M387.625,2036.58l1327.21,-1379c-2.958,-0.916 -5.916,-1.833 -8.875,-2.75l-1344.88,1295.88c7.667,29.125 16.542,57.75 26.542,85.834l-0,0.041Z" style="fill:#f2f2f2;fill-rule:nonzero;"/><path d="M1611.42,2724.38l836.375,-869.042c1.833,-11.041 3.5,-22.125 5.041,-33.291l-954.125,919.375c38.209,-3.709 75.792,-9.417 112.709,-17.042Z" style="fill:#f2f2f2;fill-rule:nonzero;"/><path d="M636.5,2431.12l1481.75,-1539.58c-0.875,-0.834 -1.75,-1.625 -2.667,-2.459l-1536,1480.04c18.167,21.417 37.167,42.083 56.917,61.958l-0,0.042Z" style="fill:#f2f2f2;fill-rule:nonzero;"/><path d="M575.292,2364.08l1473.71,-1531.21c-1.042,-0.792 -2.042,-1.625 -3.083,-2.417l-1522.29,1466.79c16.375,22.958 33.583,45.25 51.667,66.792l-0,0.041Z" style="fill:#f2f2f2;fill-rule:nonzero;"/><path d="M1788.04,2671.5l613.708,-637.667c6.208,-17.583 12,-35.416 17.292,-53.416l-760.917,733.208c44.5,-11.292 87.875,-25.417 129.917,-42.125Z" style="fill:#f2f2f2;fill-rule:nonzero;"/><path d="M641.083,2435.71c19.875,19.792 40.542,38.792 61.917,56.959l1479.17,-1536.92c-0.792,-0.875 -1.625,-1.75 -2.459,-2.667l-1538.67,1482.62l0.041,0Z" style="fill:#f2f2f2;fill-rule:nonzero;"/><path d="M325.875,1677.54c0,10.333 0.167,20.625 0.458,30.833l1058.46,-1099.75c-7.667,0.083 -15.334,0.208 -22.959,0.458l-1033.5,995.834c-1.625,24 -2.458,48.208 -2.458,72.625Z" style="fill:#f2f2f2;fill-rule:nonzero;"/><path d="M582.042,983.042c-56.5,66.041 -105.042,139.083 -144.25,217.625l444,-461.334c-53.042,29.042 -103.334,62.5 -150.417,99.834l-149.333,143.916l-0,-0.041Z" style="fill:#f2f2f2;fill-rule:nonzero;"/><path d="M1024.75,2680.83l1357.5,-1410.5c-0.917,-2.208 -1.833,-4.416 -2.75,-6.583l-1435.71,1383.42c26.416,12.291 53.416,23.541 80.916,33.708l0.042,-0.042Z" style="fill:#f2f2f2;fill-rule:nonzero;"/><path d="M2088.29,2490.17l143.833,-149.417c37.292,-47.125 70.708,-97.458 99.75,-150.5l-461.083,444.292c78.5,-39.209 151.458,-87.834 217.5,-144.334l-0,-0.041Z" style="fill:#f2f2f2;fill-rule:nonzero;"/><path d="M1340,2745.17l1118.42,-1162.04c-0.5,-5.5 -1,-11 -1.584,-16.458l-1213.5,1169.29c31.792,4.5 64.042,7.584 96.667,9.25l0,-0.041Z" style="fill:#f2f2f2;fill-rule:nonzero;"/><path d="M1121.17,2711.25l1295.12,-1345.67c-0.917,-2.958 -1.792,-5.916 -2.75,-8.875l-1378.17,1327.96c28.083,10 56.708,18.875 85.792,26.541l-0,0.042Z" style="fill:#f2f2f2;fill-rule:nonzero;"/><path d="M1134.75,2714.75c29.833,7.458 60.208,13.625 90.958,18.542l1216.5,-1264c-0.791,-4 -1.625,-8.042 -2.458,-12.042l-1305.04,1257.5l0.042,0Z" style="fill:#f2f2f2;fill-rule:nonzero;"/></g><g><path d="M2637.96,1717.25c0,-307.5 238.709,-492.958 506.459,-492.958c159.833,-0 266.375,48.541 333.833,93.75l0,217.166c-81.583,-64.083 -175.333,-122.041 -318.292,-122.041c-177.375,-0 -321,118 -321,304.125c0,186.125 140.959,302.791 323.709,302.791c133.541,0 221.875,-49.916 315.625,-122.041l-0,217.166c-66.084,44.5 -176,93.75 -331.792,93.75c-270.417,0 -508.5,-185.458 -508.5,-491.625l-0.042,-0.083Z" style="fill:#f2f2f2;fill-rule:nonzero;"/><path d="M3565.21,1972.83c0,-152.416 118.709,-236.041 237.375,-236.041c71.5,-0 121.375,29 155.125,64.083l-0.666,-29c-1.334,-74.167 -59.334,-111.292 -145,-111.292c-77.542,0 -142.959,31.709 -187.459,62.042l0,-165.917c40.459,-28.333 126.125,-62.708 223.209,-62.708c192.208,0 303.458,107.208 303.458,271.792l0,422.833l-187.458,0l-0,-48.542c-34.375,37.084 -87.667,68.792 -161.167,68.792c-118.708,0 -237.375,-83.625 -237.375,-236.042l-0.042,0Zm391.834,0c-0,-58 -44.5,-93.041 -101.167,-93.041c-62.042,-0 -103.167,38.458 -103.167,93.041c0,54.584 41.125,93.042 103.167,93.042c56.667,-0 101.167,-35.75 101.167,-93.042Z" style="fill:#f2f2f2;fill-rule:nonzero;"/><path d="M4281.38,1514.25l187.458,0l0,138.917c23.625,-85.667 87.667,-153.75 191.542,-153.75c15.5,-0 33.708,1.333 45.875,4.041l0,195.584c-12.125,-3.375 -25.625,-5.375 -42.5,-5.375c-105.208,-0 -188.167,91.708 -188.167,265.708l0,229.292l-194.208,-0l0,-674.417Z" style="fill:#f2f2f2;fill-rule:nonzero;"/><path d="M4984.08,1580.33c43.167,-52.583 117.334,-86.333 205,-86.333c187.459,-0 325.709,161.167 325.709,354.042c-0,192.875 -136.917,360.791 -327.084,360.791c-85.666,0 -162.541,-32.375 -210.416,-91.708l-0,71.5l-187.459,0l0,-944.125l194.209,-0l-0,335.833l0.041,0Zm332.459,270.417c-0,-92.375 -68.125,-172.625 -168.584,-172.625c-100.458,-0 -169.25,80.917 -169.25,172.625c0,91.708 68.125,174 169.25,174c101.125,0 168.584,-80.25 168.584,-174Z" style="fill:#f2f2f2;fill-rule:nonzero;"/><path d="M5576.88,1850.75c0,-187.458 145,-356.75 367.542,-356.75c222.541,0 367.541,169.25 367.541,356.75c0,187.5 -145,358.083 -367.541,358.083c-222.542,0 -367.542,-169.25 -367.542,-358.083Zm536.792,0.667c-0,-91.709 -68.125,-173.334 -169.25,-173.334c-101.125,0 -169.25,81.584 -169.25,173.334c-0,91.75 68.125,173.333 169.25,173.333c101.125,0 169.25,-81.583 169.25,-173.333Z" style="fill:#f2f2f2;fill-rule:nonzero;"/><path d="M6384.75,1717.25c0,-307.5 238.708,-492.958 506.458,-492.958c159.834,-0 266.375,48.541 333.834,93.75l-0,217.166c-81.584,-64.083 -175.334,-122.041 -318.292,-122.041c-177.375,-0 -321,118 -321,304.125c0,186.125 140.958,302.791 323.708,302.791c133.542,0 221.875,-49.916 315.625,-122.041l0,217.166c-66.083,44.5 -176,93.75 -331.791,93.75c-270.417,0 -508.459,-185.458 -508.459,-491.625l-0.083,-0.083Z" style="fill:#f2f2f2;fill-rule:nonzero;"/><path d="M7312,1972.83c0,-152.416 118.708,-236.041 237.375,-236.041c71.5,-0 121.375,29 155.125,64.083l-0.667,-29c-1.333,-74.167 -59.333,-111.292 -145,-111.292c-77.541,0 -142.958,31.709 -187.458,62.042l0,-165.917c40.458,-28.333 126.125,-62.708 223.208,-62.708c192.209,0 303.459,107.208 303.459,271.792l-0,422.833l-187.459,0l0,-48.542c-34.375,37.084 -87.666,68.792 -161.166,68.792c-118.709,0 -237.375,-83.625 -237.375,-236.042l-0.042,0Zm391.792,0c-0,-58 -44.5,-93.041 -101.167,-93.041c-62.042,-0 -103.167,38.458 -103.167,93.041c0,54.584 41.125,93.042 103.167,93.042c56.667,-0 101.167,-35.75 101.167,-93.042Z" style="fill:#f2f2f2;fill-rule:nonzero;"/><path d="M8028.21,2458.38l0,-944.125l187.459,0l-0,71.5c47.875,-59.333 124.75,-91.708 210.416,-91.708c190.167,-0 327.084,165.208 327.084,360.791c-0,195.584 -138.25,354.042 -325.709,354.042c-87.666,0 -161.833,-33.708 -205,-86.333l0,335.833l-194.25,0Zm188.834,-606.25c-0,91.708 68.125,172.625 169.25,172.625c101.125,0 168.583,-80.25 168.583,-172.625c-0,-92.375 -68.125,-174 -168.583,-174c-100.459,0 -169.25,80.25 -169.25,174Z" style="fill:#f2f2f2;fill-rule:nonzero;"/></g></svg>